<svg xmlns="http://www.w3.org/2000/svg" xmlns:xlink="http://www.w3.org/1999/xlink" width="243" height="7" viewBox="0 0 243 7"><defs><clipPath id="b"><rect width="243" height="7"/></clipPath></defs><g id="a" clip-path="url(#b)"><path d="M-1241.981-506h-9.038a6.524,6.524,0,0,0-6.481-6,6.525,6.525,0,0,0-6.481,6h-9.038a6.525,6.525,0,0,0-6.482-6,6.525,6.525,0,0,0-6.481,6h-9.038a6.524,6.524,0,0,0-6.481-6,6.525,6.525,0,0,0-6.481,6h-9.038a6.525,6.525,0,0,0-6.482-6,6.525,6.525,0,0,0-6.481,6h-9.038a6.524,6.524,0,0,0-6.481-6,6.525,6.525,0,0,0-6.481,6h-9.038a6.524,6.524,0,0,0-6.481-6,6.526,6.526,0,0,0-6.482,6h-9.038a6.524,6.524,0,0,0-6.481-6,6.525,6.525,0,0,0-6.481,6h-9.038a6.524,6.524,0,0,0-6.481-6,6.526,6.526,0,0,0-6.482,6h-9.038a6.525,6.525,0,0,0-6.481-6,6.525,6.525,0,0,0-6.481,6h-9.038a6.524,6.524,0,0,0-6.481-6,6.525,6.525,0,0,0-6.481,6H-1467v-7h243v7h-5.019a6.525,6.525,0,0,0-6.481-6,6.525,6.525,0,0,0-6.481,6Z" transform="translate(1467 513)" fill="#f5f3f9"/></g></svg>