<svg width="196" height="44" viewBox="0 0 196 44" fill="none" xmlns="http://www.w3.org/2000/svg">
<path d="M29.1708 24.9785L27.4441 15.6009C27.4123 15.4277 27.3574 15.2646 27.2833 15.1141L21.5338 23.4939L29.187 25.0829C29.1826 25.0482 29.1772 25.0134 29.1708 24.9785Z" fill="#FB7001"/>
<path d="M19.9181 22.5549L25.7338 14.0787C25.5832 14.0689 25.429 14.0773 25.2739 14.1059L15.8926 15.8319C15.585 15.8885 15.3091 16.0175 15.0791 16.1982L17.4349 19.3631L19.9181 22.5549Z" fill="#FB7001"/>
<path d="M15.9515 20.4911L14.4952 18.5347L16.1237 27.3789C16.155 27.5487 16.2084 27.7089 16.2803 27.857L18.8117 24.1675L15.9515 20.4911Z" fill="#FB7001"/>
<path d="M18.294 28.8739C18.1355 28.9031 17.978 28.9113 17.8243 28.9004L20.3911 25.1594L28.4272 26.8279C28.2101 26.9843 27.9559 27.0963 27.6752 27.1479L18.294 28.8739Z" fill="#FB7001"/>
<path fill-rule="evenodd" clip-rule="evenodd" d="M20.6931 35.2069C28.3434 35.8022 35.0281 30.0854 35.6236 22.438C36.2192 14.7906 30.5002 8.10855 22.8498 7.51322C15.1995 6.91788 8.51481 12.6347 7.91924 20.2821C7.32367 27.9295 13.0427 34.6115 20.6931 35.2069ZM29.2771 15.2636C28.9044 13.2398 26.9611 11.9012 24.9365 12.2737L15.5553 13.9997C13.5307 14.3721 12.1915 16.3147 12.5641 18.3385L14.2908 27.7162C14.6634 29.74 16.6067 31.0786 18.6313 30.7061L28.0126 28.9801C30.0372 28.6077 31.3764 26.6651 31.0037 24.6413L29.2771 15.2636Z" fill="#FB7001"/>
<path fill-rule="evenodd" clip-rule="evenodd" d="M0.40332 9.39139C0.40332 4.20467 4.60962 0 9.79835 0H34.14C39.3287 0 43.535 4.20467 43.535 9.39139V33.7236C43.535 38.9103 39.3287 43.115 34.14 43.115H9.79835C4.60962 43.115 0.40332 38.9103 0.40332 33.7236V9.39139ZM30.8802 2.13441H34.14C38.1495 2.13441 41.3998 5.38347 41.3998 9.39139V33.7236C41.3998 37.7315 38.1495 40.9806 34.14 40.9806H30.9439C28.7322 38.6164 25.5839 37.1387 22.0903 37.1387C18.5967 37.1387 15.4483 38.6164 13.2366 40.9806H9.79835C5.78887 40.9806 2.53855 37.7315 2.53855 33.7236V9.39139C2.53855 5.38347 5.78887 2.13441 9.79835 2.13441H13.3003C15.5086 4.45918 18.6301 5.90874 22.0903 5.90874C25.5505 5.90874 28.672 4.45918 30.8802 2.13441Z" fill="#FB7001"/>
<path d="M58.1312 25.27V34.657H52.7178V8.2998H64.3548C67.3008 8.2998 69.4981 9.09739 70.9466 10.6926C72.2232 12.0914 72.8616 14.0179 72.8616 16.472C72.8616 19.3433 72.0514 21.5765 70.431 23.1717C69.0071 24.5706 67.1658 25.27 64.9072 25.27H58.1312ZM58.1312 20.7421H63.1763C66.0242 20.7421 67.4481 19.4292 67.4481 16.8033C67.4481 14.1529 66.0242 12.8276 63.1763 12.8276H58.1312V20.7421Z" fill="#FB7001"/>
<path d="M80.4569 8.2998V34.657H75.3749V8.2998H80.4569Z" fill="#FB7001"/>
<path d="M101.316 33.3686V34.657H95.7926C95.4243 34.1907 95.2279 33.5281 95.2034 32.6691C93.8531 34.2643 91.889 35.0619 89.3112 35.0619C87.4208 35.0619 85.8987 34.4852 84.7448 33.3317C83.8119 32.3992 83.3454 31.1108 83.3454 29.4665C83.3454 27.0124 84.3275 25.27 86.2915 24.2393C87.1262 23.7975 88.7834 23.3558 91.263 22.914L95.2402 22.1778L95.2034 20.779C95.1788 19.4783 94.1968 18.8279 92.2573 18.8279C91.0052 18.8279 90.1214 19.0243 89.6058 19.4169C89.1148 19.785 88.8079 20.4722 88.6852 21.4784H83.8242C84.1188 16.9874 86.893 14.7418 92.1468 14.7418C95.0438 14.7418 97.1306 15.2572 98.4072 16.2879C99.5611 17.2696 100.138 18.7543 100.138 20.7421V31.6384C100.138 32.5219 100.531 33.0986 101.316 33.3686ZM95.2402 25.2332L91.5208 26.0798C90.4651 26.3253 89.6795 26.6811 89.1639 27.1474C88.6729 27.6137 88.4274 28.1904 88.4274 28.8775C88.4274 30.2764 89.3358 30.9758 91.1525 30.9758C93.7794 30.9758 95.1297 29.5401 95.2034 26.6688L95.2402 25.2332Z" fill="#FB7001"/>
<path d="M115.969 15.1468H121.162L113.134 38.1909C112.569 39.8351 111.82 40.964 110.887 41.5776C109.955 42.2156 108.567 42.5347 106.726 42.5347C105.032 42.5347 103.854 42.3138 103.191 41.872L103.964 38.4486C104.848 38.6694 105.585 38.7799 106.174 38.7799C107.033 38.7799 107.77 38.4854 108.383 37.8964C108.997 37.3319 109.304 36.6571 109.304 35.8717V35.4668L102.049 15.1468H107.61L111.955 29.3561L115.969 15.1468Z" fill="#FB7001"/>
<path d="M123.368 15.1468H128.413V17.5027C129.91 15.6621 131.69 14.7418 133.753 14.7418C136.281 14.7418 138.049 15.699 139.056 17.6132C140.529 15.699 142.431 14.7418 144.764 14.7418C146.728 14.7418 148.25 15.2818 149.33 16.3616C150.435 17.4168 150.987 18.8893 150.987 20.779V34.657H145.942V21.5888C145.942 19.8955 145.021 19.0488 143.18 19.0488C142.1 19.0488 141.253 19.3924 140.639 20.0795C140.025 20.7421 139.718 21.6747 139.718 22.8772V34.657H134.636V21.5888C134.636 19.8955 133.728 19.0488 131.911 19.0488C130.831 19.0488 129.984 19.3924 129.37 20.0795C128.757 20.7421 128.45 21.6747 128.45 22.8772V34.657H123.368V15.1468Z" fill="#FB7001"/>
<path d="M159.345 15.1468V34.657H154.263V15.1468H159.345Z" fill="#FB7001"/>
<path d="M163.522 15.1468H168.604V17.9076C169.979 15.7971 171.919 14.7418 174.423 14.7418C176.657 14.7418 178.351 15.4045 179.505 16.7297C180.487 17.9076 180.978 19.5028 180.978 21.5152V34.657H175.933V22.5459C175.933 20.2145 174.84 19.0488 172.655 19.0488C171.428 19.0488 170.446 19.4047 169.709 20.1164C168.973 20.8035 168.604 21.7238 168.604 22.8772V34.657H163.522V15.1468Z" fill="#FB7001"/>
<path d="M194.146 15.1468V18.4966H190.721V29.3561C190.721 30.0678 190.844 30.5586 191.09 30.8285C191.36 31.0985 191.839 31.2335 192.526 31.2335C193.091 31.2335 193.815 31.0126 194.699 30.5709C194.772 30.5218 194.834 30.485 194.883 30.4604L195.472 33.9207C193.925 34.6815 192.305 35.0619 190.611 35.0619C187.297 35.0619 185.64 33.5403 185.64 30.4972V18.4966H183.135V15.1468H185.64V11.9073L190.721 8.99923V15.1468H194.146Z" fill="#FB7001"/>
<ellipse cx="156.516" cy="9.12984" rx="2.90636" ry="2.90524" fill="#FB7001"/>
</svg>
