<svg xmlns="http://www.w3.org/2000/svg" fill="none" viewBox="0 0 330 353">
  <g filter="url(#a)">
    <g filter="url(#b)">
      <path fill="url(#c)" d="m298 204-71 95c-2 3-3 5-5 5l-7 1-118-11-8-1-4-7-23-52-11-23-21-47c-2-5-3-7-2-9l4-8 69-93 6-6h9l115 10c5 0 7 0 9 2 2 1 3 3 5 8l22 50 9 20 23 52 3 7-4 7Z"/>
    </g>
    <path fill="#3D3748" d="M212 295h6l4-4 66-90 3-5-2-6-21-47-1-2-2 1-24 11-1 1v1l14 32 1 2-1 2-51 67-1 2h-2l-84-7-2-1-1-2-14-31-1-2-2 1-24 10-1 1v2l21 48 3 5 6 1 111 10Z"/>
    <path fill="#FB7001" fill-rule="evenodd" d="M152 125h2v2l6 25v2l-2 1a22 22 0 0 0-5 2l-2 1-1-1-16-21v-2l1-1a53 53 0 0 1 17-8Zm-32 24 1-1 1 1 22 14 1 1v1a22 22 0 0 0-2 6l-1 2h-2l-25-4h-2v-2a53 53 0 0 1 7-18Zm-6 40v-2h1l26-6h1l1 2a22 22 0 0 0 2 5l1 2-1 1-21 16h-1l-1-1a53 53 0 0 1-8-17Zm23 32-1-1 1-1 14-22 1-1h2a23 23 0 0 0 6 3h1v2l-4 25v2h-2a53 53 0 0 1-18-7Zm40 6h-1l-1-1-5-26v-1l1-1a22 22 0 0 0 6-2l1-1 1 1 16 21 1 1-1 2a53 53 0 0 1-18 7Zm33-23-2 1-1-1-22-14-1-1 1-2a22 22 0 0 0 2-6v-1h2l26 4h1v2a53 53 0 0 1-6 18Zm6-40v2h-2l-25 5h-2l-1-1a22 22 0 0 0-2-6l-1-1 1-1 21-16 2-1 1 2a53 53 0 0 1 8 17Zm-24-32 1 1v1l-15 22-1 1-1-1a23 23 0 0 0-6-2h-2v-2l4-26 1-1h1a53 53 0 0 1 18 7Z" clip-rule="evenodd"/>
    <path fill="#3D3748" d="m88 200 2-1-1-2-14-31v-2l1-2 50-67 1-2h3l83 7 2 1 2 2 14 31 1 2 1-1 24-11 2-1-1-1-20-47-4-6-7-1-109-10h-6l-5 5-65 88-3 6 2 7 21 46 1 1h1l24-11Z"/>
    <path fill="url(#d)" d="m85 286-23-52-11-23-21-47c-2-5-3-7-2-9l4-8 69-93 6-6h9l115 10c5 0 7 0 9 2l1 1 3 6-3 6-141 216-5 5-5-1h-1l-4-7Z" opacity=".3"/>
  </g>
  <defs>
    <linearGradient id="c" x1="107.2" x2="222" y1="48" y2="304.3" gradientUnits="userSpaceOnUse">
      <stop stop-color="#F4F4F4"/>
      <stop offset="1" stop-color="white"/>
    </linearGradient>
    <linearGradient id="d" x1="107.2" x2="197.3" y1="48" y2="249.1" gradientUnits="userSpaceOnUse">
      <stop stop-color="white"/>
      <stop offset="1" stop-color="white" stop-opacity="0"/>
    </linearGradient>
    <filter id="a" width="277.1" height="261" x="26" y="47" color-interpolation-filters="sRGB" filterUnits="userSpaceOnUse">
      <feFlood flood-opacity="0" result="BackgroundImageFix"/>
      <feColorMatrix in="SourceAlpha" result="hardAlpha" values="0 0 0 0 0 0 0 0 0 0 0 0 0 0 0 0 0 0 127 0"/>
      <feOffset dy="2"/>
      <feGaussianBlur stdDeviation=".7"/>
      <feComposite in2="hardAlpha" operator="out"/>
      <feColorMatrix values="0 0 0 0 0 0 0 0 0 0 0 0 0 0 0 0 0 0 0.32 0"/>
      <feBlend in2="BackgroundImageFix" result="effect1_dropShadow_466_8796"/>
      <feBlend in="SourceGraphic" in2="effect1_dropShadow_466_8796" result="shape"/>
    </filter>
    <filter id="b" width="274.2" height="260.3" x="28" y="46" color-interpolation-filters="sRGB" filterUnits="userSpaceOnUse">
      <feFlood flood-opacity="0" result="BackgroundImageFix"/>
      <feBlend in="SourceGraphic" in2="BackgroundImageFix" result="shape"/>
      <feColorMatrix in="SourceAlpha" result="hardAlpha" values="0 0 0 0 0 0 0 0 0 0 0 0 0 0 0 0 0 0 127 0"/>
      <feOffset dy="2"/>
      <feGaussianBlur stdDeviation=".7"/>
      <feComposite in2="hardAlpha" k2="-1" k3="1" operator="arithmetic"/>
      <feColorMatrix values="0 0 0 0 1 0 0 0 0 1 0 0 0 0 1 0 0 0 1 0"/>
      <feBlend in2="shape" result="effect1_innerShadow_466_8796"/>
      <feColorMatrix in="SourceAlpha" result="hardAlpha" values="0 0 0 0 0 0 0 0 0 0 0 0 0 0 0 0 0 0 127 0"/>
      <feOffset dy="-2"/>
      <feGaussianBlur stdDeviation=".7"/>
      <feComposite in2="hardAlpha" k2="-1" k3="1" operator="arithmetic"/>
      <feColorMatrix values="0 0 0 0 0 0 0 0 0 0 0 0 0 0 0 0 0 0 0.14 0"/>
      <feBlend in2="effect1_innerShadow_466_8796" result="effect2_innerShadow_466_8796"/>
    </filter>
  </defs>
</svg>