<svg xmlns="http://www.w3.org/2000/svg" viewBox="0 0 613 86">
  <defs>
    <clipPath id="a">
      <path d="M0 0h613v86H0z"/>
    </clipPath>
  </defs>
  <g clip-path="url(#a)">
    <path d="M577.146 85.908V.377h35.653l-.34 16.671H594.7v17.215h13.16v15.561H594.7v19.412h17.985v16.671Zm-450.271-2.447-5.437-9.787c-1.087-2.175-3.262-2.719-5.437-2.175l-10.875 3.262c-3.262 1.087-6.525-2.175-5.437-5.98l3.262-10.875a4.765 4.765 0 0 0-2.718-5.437l-9.787-5.437a4.621 4.621 0 0 1 0-8.156l9.787-5.437a4.764 4.764 0 0 0 2.718-5.436l-3.262-10.875a4.358 4.358 0 0 1 5.438-5.437l10.875 3.262a4.764 4.764 0 0 0 5.437-2.718l5.437-9.787a4.621 4.621 0 0 1 8.156 0l5.437 9.787a4.765 4.765 0 0 0 5.438 2.718l10.874-3.262c3.806-1.087 7.069 2.175 5.981 5.437L159.5 28c-.544 2.174 0 4.349 2.175 5.436l9.787 5.437a4.622 4.622 0 0 1 0 8.156l-9.787 5.437c-2.175 1.088-2.719 3.262-2.175 5.437l3.262 10.875a4.744 4.744 0 0 1-5.981 5.98l-10.874-3.262c-2.175-.544-4.35 0-5.437 2.175l-5.437 9.787a4.485 4.485 0 0 1-4.078 2.447 4.485 4.485 0 0 1-4.079-2.444Zm427.145 2.22-13.071-31.734.228 31.734H523.3l-.316-85.53h17.531l.271 35.245L553.471.151h19.615l-18.823 44.577 19.366 40.953Zm-53.185 0-1.676-13.818h-13.342l-1.54 13.818h-18.1l11.62-85.53h28.631l12.707 85.53Zm-13.138-30.805h9.378l-4.892-40.183Zm-42.672 30.805-1.631-62.97-9.332 62.97h-16.99l-9.331-62.97-1.631 62.97h-17.441l3.94-85.53h26.638l6.32 58.553 6.3-58.553h26.638l3.964 85.53Zm-78.963 0-8.788-29.786c-1.223.158-2.492.249-3.805.316V85.68h-17.555V.15c6.909-.34 15.132 0 17.1 0 18.527 0 30.487 9.446 30.487 28.518l-.023-.023c0 10.487-4.1 17.826-11.166 22.311l12.05 34.724Zm-12.594-68.5v22.492c9.241.113 12.933-3.715 12.933-11.235 0-7.182-3.552-11.286-11.742-11.285-.387.004-.784.013-1.191.032Zm-60.094 68.5V.151H329l-.317 16.671h-17.758v17.214h13.16V49.6h-13.16v19.412h17.985v16.671Zm-54.067 0V.151h13.16c21.473 0 35.516 13.93 35.516 44.622-.747 29.4-14.021 40.908-35.516 40.908Zm17.555-18.416v.023c9.693-1.562 13.159-9.242 13.159-22.492 0-17.237-3.466-23.739-13.159-24.984Zm-44.4 18.416-14.519-48.179 1.789 48.179h-17.758l-.771-85.53h19.616l14.474 50.716-1.2-50.716h17.668l-.566 85.53Zm-163.334 0-5.64-64.351-7.52 64.351H10.644L0 .151h19.639l4.824 62.9 7.565-62.9 22.9.226 7.2 62.653 4.1-62.878h18.188l-9.649 85.53Z" data-name="Union 1" fill="rgb(168, 162, 181)"/>
  </g>
</svg>
